<?xml version="1.0" encoding="utf-8"?>
<!-- Generator: Adobe Illustrator 19.0.0, SVG Export Plug-In . SVG Version: 6.00 Build 0)  -->
<svg version="1.1" id="Camada_1" xmlns="http://www.w3.org/2000/svg" xmlns:xlink="http://www.w3.org/1999/xlink" x="0px" y="0px"
	 viewBox="0 0 84.4 95.5" style="enable-background:new 0 0 84.4 95.5;" xml:space="preserve">
<style type="text/css">
	.st0{clip-path:url(#XMLID_298_);}
	.st1{clip-path:url(#XMLID_299_);}
	.st2{clip-path:url(#XMLID_300_);}
	.st3{fill:#DCE0DF;}
	.st4{clip-path:url(#XMLID_300_);fill:#DCE0DF;}
</style>
<g id="XMLID_4_">
	<defs>
		<polyline id="XMLID_2_" points="-1.3,-1 84.4,-1 84.4,96.8 -1.3,96.8 -1.3,-1 		"/>
	</defs>
	<clipPath id="XMLID_298_">
		<use xlink:href="#XMLID_2_"  style="overflow:visible;"/>
	</clipPath>
	<g id="XMLID_6_" class="st0">
		<defs>
			<rect id="XMLID_7_" x="-7" y="-1.8" width="92.4" height="100.5"/>
		</defs>
		<clipPath id="XMLID_299_">
			<use xlink:href="#XMLID_7_"  style="overflow:visible;"/>
		</clipPath>
		<g id="XMLID_9_" class="st1">
			<defs>
				<rect id="XMLID_10_" x="-1.9" y="-3.7" width="88.6" height="102.4"/>
			</defs>
			<clipPath id="XMLID_300_">
				<use xlink:href="#XMLID_10_"  style="overflow:visible;"/>
			</clipPath>
			<g id="XMLID_26_" class="st2">
				<path id="XMLID_12_" class="st3" d="M88-13.1v178.6H-3.6V-13.1H88 M90-15.1H-5.6v182.6H90V-15.1L90-15.1z"/>
			</g>
			<path id="XMLID_11_" class="st4" d="M53,68.9c0.3,0.4,0.5,0.9,0.6,1.3c0.2,0.7,0.3,1.5,0.2,2.4c-0.2,1.8-0.9,3.9-2.2,6.4
				c0,0,0,0,0,0.1c0,0,0,0.1,0,0.1c0,0,0,0.1,0,0.1c0,0,0,0.1,0,0.1c0,0,0,0.1,0,0.1c0,0,0,0.1,0,0.1c0,0,0,0.1,0,0.1c0,0,0,0,0,0.1
				c0,0,0,0,0,0.1c0,0,0,0.1,0,0.1c0,0,0,0.1,0,0.1c0,0,0,0.1,0,0.1c0,0,0,0.1,0.1,0.1c0,0,0,0,0,0.1c0,0,0.1,0.1,0.1,0.1
				c0,0,0,0,0,0c0.1,0,0.1,0.1,0.2,0.1c0,0,0,0,0,0c0,0,0.1,0,0.2,0.1c0,0,0,0,0,0c0,0,0.1,0,0.1,0c0,0,0,0,0,0c0.1,0,0.1,0,0.2,0
				l0,0l0,0l0,0c0.1,0,0.1,0,0.2,0c0,0,0,0,0,0c11.6-2.4,19-9.6,23.2-15.2c4.5-6.1,6.3-11.5,6.3-11.8c3.2-10.8,1-21.2-6.4-30.2
				c-5.4-6.5-11.6-10-12.2-10.3c-0.8-0.5-1.9-1.1-2.9-1.8c-2.8-1.7-6.3-3.8-7.6-4.8c-3.8-3.1-6.1-5.9-6.1-5.9
				c-0.3-0.4-0.8-0.5-1.2-0.4c-0.4,0.1-0.8,0.5-0.8,1c-0.5,3.7-0.3,7.9,0.1,12c0.1,0.8,0.2,1.6,0.3,2.4c1.4,10.1,4.5,19.2,4.7,19.7
				c0,0,0,0,0,0c3.1,8.2,3.4,14.2,0.7,17.8c-2.9,4-8.5,3.7-8.6,3.7c0,0-0.1,0-0.1,0c0,0,0,0-0.1,0c-0.1,0-5.7,0.3-8.6-3.7
				c-2.7-3.6-2.4-9.6,0.7-17.9c0,0,0,0,0,0c0.2-0.6,3.3-9.7,4.7-19.7c0.1-0.8,0.2-1.6,0.3-2.4c0.5-4.1,0.6-8.3,0.1-12
				c-0.1-0.5-0.4-0.8-0.8-1c-0.4-0.1-0.9,0-1.2,0.4c0,0-2.3,2.8-6.1,5.9c-1.2,1-4.7,3.1-7.6,4.8c-1.1,0.7-2.1,1.3-2.9,1.8
				c-0.6,0.3-6.8,3.8-12.2,10.3c-7.4,9-9.6,19.4-6.4,30.2c0.1,0.2,1.8,5.7,6.3,11.8c7.6,10.2,16.8,13.9,23.2,15.2c0,0,0,0,0,0
				c0.1,0,0.1,0,0.2,0h0h0l0,0c0.1,0,0.1,0,0.2,0c0,0,0,0,0,0c0,0,0.1,0,0.1,0c0,0,0,0,0,0c0.1,0,0.1,0,0.2-0.1c0,0,0,0,0,0
				c0.1,0,0.1-0.1,0.2-0.1c0,0,0,0,0.1,0c0,0,0.1-0.1,0.1-0.1c0,0,0,0,0-0.1c0,0,0-0.1,0.1-0.1c0,0,0-0.1,0-0.1c0,0,0-0.1,0-0.1
				c0,0,0-0.1,0-0.1c0,0,0,0,0-0.1c0,0,0,0,0-0.1c0,0,0-0.1,0-0.1c0,0,0-0.1,0-0.1c0,0,0-0.1,0-0.1c0,0,0-0.1,0-0.1c0,0,0-0.1,0-0.1
				c0,0,0-0.1,0-0.1c0,0,0,0,0-0.1c-1.3-2.4-2.1-4.6-2.2-6.4c-0.1-0.9,0-1.7,0.2-2.4c0.1-0.5,0.3-0.9,0.6-1.3
				c1.7-2.7,5.9-3.4,8.5-3.6v20.6h-4.4c-0.7,0-1.2,0.6-1.2,1.2v2.3c0,0.7,0.6,1.2,1.2,1.2h4.4v3c0,1.1,0.9,1.9,1.9,1.9h0.9
				c1.1,0,1.9-0.9,1.9-1.9v-3h4.4c0.7,0,1.2-0.6,1.2-1.2v-2.3c0-0.7-0.6-1.2-1.2-1.2h-4.4V65.3C47.2,65.5,51.3,66.2,53,68.9
				 M70.8,44c0,10.9-6.1,20.4-15.1,25.2c-0.2-0.6-0.4-1.1-0.7-1.6c0,0,0-0.1-0.1-0.1c2.4-1.4,14.4-8.9,13.9-23.7
				c0-0.2-0.2-0.4-0.4-0.4l-3.1,0c-0.1,0-0.2,0-0.3,0.1c-0.1,0.1-0.1,0.2-0.1,0.3c0,0.1,0.6,5.7-1.6,10.6l-1.5-0.8
				c0.4-1.2,1.8-5.5,1.2-11.6l7.6-0.2C70.8,42.6,70.8,43.3,70.8,44z M67.9,37.1c-2.1-7.2-6.1-10.7-6.3-10.9
				c-3.1-3.2-4.7-4.2-6.5-5.3c-0.2-0.1-0.4-0.2-0.6-0.4c-1.9-1.2-4.2-2.2-4.3-2.2c-0.1-0.1-0.3,0-0.4,0.1c-0.1,0.1-0.2,0.2-0.1,0.4
				c0,0.1,1.7,7.1,2.9,10.6c0.1,0.2,0.2,0.3,0.4,0.2l2.3-0.5c0,0,0,0,0.1,0c0.2-0.1,0.3-0.3,0.2-0.5c-0.2-0.6-1.1-3-1.6-4.8
				c1.3,0.9,3.9,2.9,5.8,5.5l-8.5,2.2c-1-3.4-2.6-9.3-3.5-15.6c11.5,2.3,20.5,11.5,22.5,23l-7.8,0.2c-0.6-3.3-2-5.9-2.5-6.9l1.7-0.5
				c2.1,3.7,2.4,5.5,2.4,5.6c0,0.2,0.2,0.3,0.4,0.3l3-0.2c0.1,0,0.2-0.1,0.3-0.2C67.9,37.3,67.9,37.2,67.9,37.1z M57.4,42.7
				c-0.8-4.6-1.3-5.8-2.4-8.5l-0.2-0.4l1.9-0.5c0.4,0.9,1.9,3.9,2.6,8.2c0,0.1,2.7,11.5-5.1,18c-0.1,0.1-0.1,0.2-0.1,0.3
				c0,0.1,0,0.2,0.1,0.3l1.3,1.5c0.1,0.1,0.3,0.2,0.5,0.1c0.1-0.1,2.7-1.8,4.7-5l1.4,0.8c-0.8,1.1-3.6,4.7-6.9,6.5
				c-0.7-0.8-2.2-2.5-2.4-2.8c-0.1-0.2-0.3-0.2-0.5-0.1c0,0-4,2.4-7.3,2c-0.1,0-0.2,0-0.3,0.1c0,0,0,0,0,0v-1.5c0,0,0,0,0,0
				c4.7-0.4,8.2-2.1,10.4-5.1C59.1,50.8,57.5,43,57.4,42.7z M39.8,63c-0.1-0.1-0.2-0.1-0.3-0.1c-3.2,0.4-7.2-2-7.3-2
				c-0.2-0.1-0.4-0.1-0.5,0.1c-0.2,0.4-1.7,2-2.4,2.8c-3.4-1.8-6.1-5.5-6.9-6.5l1.4-0.8c2,3.2,4.6,5,4.7,5c0.2,0.1,0.4,0.1,0.5-0.1
				l1.3-1.5c0.1-0.1,0.1-0.2,0.1-0.3c0-0.1-0.1-0.2-0.1-0.3c-7.8-6.5-5.2-17.9-5.1-18c0.7-4.3,2.1-7.3,2.6-8.2l1.9,0.5l-0.2,0.4
				c-1.1,2.7-1.7,3.9-2.4,8.5c-0.1,0.3-1.6,8.1,2.5,13.7c2.2,3,5.7,4.7,10.4,5.1c0,0,0,0,0,0L39.8,63C39.8,63,39.8,63,39.8,63z
				 M33,31.5l-8.5-2.2c1.9-2.6,4.5-4.6,5.8-5.5c-0.5,1.7-1.4,4.2-1.6,4.8c-0.1,0.2,0,0.4,0.2,0.5c0,0,0,0,0.1,0l2.3,0.5
				c0.2,0,0.4-0.1,0.4-0.2c1.2-3.5,2.9-10.5,2.9-10.6c0-0.1,0-0.3-0.1-0.4c-0.1-0.1-0.3-0.1-0.4-0.1c0,0-2.3,1.1-4.3,2.2
				c-0.2,0.1-0.4,0.3-0.6,0.4c-1.8,1.1-3.4,2.1-6.5,5.3c-0.2,0.1-4.1,3.7-6.3,10.9c0,0.1,0,0.2,0.1,0.3c0.1,0.1,0.2,0.1,0.3,0.2
				l3,0.2c0.2,0,0.4-0.1,0.4-0.3c0,0,0.3-1.9,2.4-5.6l1.7,0.5c-0.5,1-1.9,3.6-2.5,6.9L14,38.9C16,27.4,25,18.2,36.5,15.9
				C35.5,22.2,34,28.1,33,31.5z M22.4,53.8l-1.5,0.8c-2.3-4.9-1.6-10.6-1.6-10.6c0-0.1,0-0.2-0.1-0.3c-0.1-0.1-0.2-0.1-0.3-0.1
				l-3.1,0c0,0,0,0,0,0c-0.2,0-0.4,0.2-0.4,0.4c-0.5,14.9,11.5,22.4,13.9,23.7c0,0,0,0.1-0.1,0.1c-0.3,0.5-0.6,1-0.7,1.6
				c-9-4.8-15.1-14.3-15.1-25.2c0-0.7,0-1.4,0.1-2l7.6,0.2C20.6,48.3,22,52.6,22.4,53.8z M10.3,64.2c-4.3-5.8-6-11.1-6-11.1
				c-3-10.1-1.1-19.6,5.9-28c5.3-6.4,11.6-9.8,11.6-9.8c0,0,0,0,0.1,0c0.8-0.5,1.9-1.1,3-1.8c3-1.8,6.5-3.9,7.8-5
				c2-1.6,3.5-3.1,4.6-4.3c0.2,3,0,6.2-0.4,9.4C22.3,16,11.2,28.7,11.2,44c0,12.1,6.9,22.5,17,27.6c-0.1,1.8,0.4,3.9,1.4,6.3
				C22,75.8,15.5,71.2,10.3,64.2z M29.9,67c-2.1-1.1-13.9-8.4-13.7-22.8l2.3,0c-0.1,1.4-0.3,6.5,1.9,11c0,0.1,0.1,0.2,0.2,0.2
				c0.1,0,0.2,0,0.3,0l2.1-1.1c0.2-0.1,0.2-0.3,0.2-0.5c0,0-2.1-4.9-1.3-11.9c0-0.1,0-0.2-0.1-0.3c-0.1-0.1-0.2-0.1-0.3-0.1
				l-7.9-0.2c0.1-0.5,0.1-1.1,0.2-1.6l8.2,0.3c0,0,0,0,0,0c0.2,0,0.3-0.1,0.4-0.3c0.7-4.1,2.7-7.3,2.7-7.4c0.1-0.1,0.1-0.2,0-0.3
				c0-0.1-0.1-0.2-0.2-0.2l-2.4-0.6c-0.2,0-0.3,0-0.4,0.2c-1.8,3.1-2.4,5-2.6,5.7l-2.2-0.1c2.1-6.7,5.9-10.1,6-10.1
				c3-3.2,4.6-4.1,6.3-5.2c0.2-0.1,0.4-0.2,0.6-0.4c1.3-0.8,2.7-1.5,3.5-1.9c-0.5,1.8-1.7,6.6-2.6,9.5l-1.6-0.4
				c0.4-1.1,1.4-4,1.7-5.4c0-0.1,0-0.3-0.1-0.4c-0.1-0.1-0.3-0.1-0.4,0c-0.2,0.1-4.5,2.7-7.1,6.7c-0.1,0.1-0.1,0.2,0,0.3
				c0,0.1,0.1,0.2,0.2,0.2l9,2.4c-0.4,1.3-0.7,2.2-0.7,2.3c-3.4,9-3.6,15.7-0.4,20c2.3,3.2,5.9,4.2,8.2,4.5v1.7
				c-4.4-0.4-7.7-2-9.8-4.8c-3.9-5.3-2.4-13-2.3-13.1c0.7-4.5,1.3-5.7,2.4-8.3l0.3-0.8c0-0.1,0-0.2,0-0.3c0-0.1-0.1-0.2-0.2-0.2
				l-2.6-0.7c-0.2,0-0.3,0-0.4,0.2c-0.1,0.1-2,3.5-2.8,8.7c0,0.1-2.7,11.7,5.1,18.5l-0.8,1c-0.7-0.5-2.8-2.2-4.4-4.9
				c-0.1-0.2-0.3-0.2-0.5-0.1l-2,1.1c-0.1,0-0.2,0.1-0.2,0.2c0,0.1,0,0.2,0.1,0.3c0.1,0.2,3.4,5.1,7.7,7.2c0.1,0,0.1,0,0.2,0
				c0.1,0,0.2,0,0.3-0.1c0.2-0.2,1.9-2.1,2.5-2.9c0.7,0.4,2.5,1.3,4.5,1.7C34.3,63.9,31.6,64.9,29.9,67z M47.7,63.4
				c2-0.4,3.9-1.4,4.5-1.7c0.6,0.8,2.3,2.6,2.5,2.9c0.1,0.1,0.2,0.1,0.3,0.1c0.1,0,0.1,0,0.2,0c4.2-2.1,7.5-7,7.7-7.2
				c0.1-0.1,0.1-0.2,0.1-0.3c0-0.1-0.1-0.2-0.2-0.2l-2-1.1c-0.2-0.1-0.4,0-0.5,0.1c-1.6,2.7-3.7,4.4-4.4,4.9l-0.8-1
				C62.7,53,60,41.4,60,41.3c-0.8-5.2-2.7-8.6-2.8-8.7c-0.1-0.1-0.3-0.2-0.4-0.2l-2.6,0.7c-0.1,0-0.2,0.1-0.2,0.2c0,0.1,0,0.2,0,0.3
				l0.3,0.8c1.1,2.7,1.6,3.9,2.4,8.4c0,0.1,1.6,7.8-2.3,13.1c-2.1,2.8-5.4,4.5-9.8,4.8V59c2.3-0.3,5.9-1.3,8.2-4.5
				c3.2-4.3,3-11-0.4-20c0-0.1-0.3-1-0.7-2.3l9-2.4c0.1,0,0.2-0.1,0.2-0.2s0-0.2,0-0.3c-2.6-3.9-6.9-6.5-7.1-6.7
				c-0.1-0.1-0.3-0.1-0.4,0c-0.1,0.1-0.2,0.2-0.1,0.4c0.3,1.4,1.3,4.2,1.7,5.4l-1.6,0.4c-0.9-2.9-2.1-7.6-2.6-9.5
				c0.8,0.4,2.2,1.1,3.5,1.9c0.2,0.1,0.4,0.3,0.6,0.4c1.8,1.1,3.3,2,6.4,5.2c0,0,3.8,3.4,5.9,10.1L64.8,37c-0.2-0.7-0.7-2.6-2.6-5.7
				c-0.1-0.1-0.2-0.2-0.4-0.2l-2.4,0.6c-0.1,0-0.2,0.1-0.2,0.2c0,0.1,0,0.2,0,0.3c0,0,1.9,3.2,2.7,7.4c0,0.2,0.2,0.3,0.4,0.3
				c0,0,0,0,0,0l8.2-0.3c0.1,0.5,0.1,1,0.2,1.6l-7.9,0.2c-0.1,0-0.2,0-0.3,0.1c-0.1,0.1-0.1,0.2-0.1,0.3c0.8,7.1-1.2,11.9-1.3,11.9
				c-0.1,0.2,0,0.4,0.2,0.5l2.1,1.1c0.1,0,0.2,0.1,0.3,0c0.1,0,0.2-0.1,0.2-0.2c2.2-4.5,2-9.5,1.9-11l2.3,0
				C68.4,58.6,56.5,65.8,54.5,67C52.8,64.9,50.1,63.9,47.7,63.4z M80.1,53.1c-0.1,0.2-6.4,19.6-25.4,24.8c1-2.3,1.5-4.4,1.4-6.3
				c10.1-5.1,17-15.6,17-27.6c0-15.2-11.1-27.9-25.6-30.5c-0.4-3.2-0.6-6.4-0.4-9.4c1.1,1.1,2.7,2.7,4.6,4.3c1.3,1.1,4.8,3.2,7.8,5
				c1.1,0.7,2.1,1.3,3,1.8c0,0,0,0,0.1,0c0.1,0,6.3,3.4,11.6,9.8C81.2,33.5,83.2,42.9,80.1,53.1z"/>
		</g>
	</g>
</g>
</svg>
